<?xml version="1.0" encoding="utf-8"?>
<!-- Generator: Adobe Illustrator 16.0.0, SVG Export Plug-In . SVG Version: 6.00 Build 0)  -->
<!DOCTYPE svg PUBLIC "-//W3C//DTD SVG 1.1//EN" "http://www.w3.org/Graphics/SVG/1.1/DTD/svg11.dtd">
<svg version="1.1" id="Layer_1" xmlns="http://www.w3.org/2000/svg" xmlns:xlink="http://www.w3.org/1999/xlink" x="0px" y="0px"
	 width="1400px" height="1400px" viewBox="0 0 1400 1400" enable-background="new 0 0 1400 1400" xml:space="preserve">
<g>
	<rect x="0" y="0" fill="#FFFFFF" width="1400" height="1400"/>
	<g>
		<path fill="#87C0B1" d="M1240,73.2H160C112,73.2,73.2,112,73.2,160v643.5h536.3h30.6h59.2h1.4h59.2h30.6h536.3V160
			C1326.8,112,1288,73.2,1240,73.2z"/>
		<polygon fill="#7CB0A3" points="195.4,422.7 195.4,471.7 236.8,471.7 236.8,310.4 308.7,310.4 308.7,225 441.7,225 441.7,375.5 
			502.8,375.5 502.8,151.3 529.8,151.3 529.8,115.3 580.1,115.3 580.1,151.3 639.4,151.3 639.4,286.1 691.6,286.1 691.6,171 
			767.1,171 767.1,431.7 799.4,431.7 799.4,342.7 909.1,342.7 909.1,127.9 1015.2,127.9 1015.2,286.1 1110.4,286.1 1110.4,465.9 
			1139.2,465.9 1139.2,358 1214.7,358 1214.7,415.5 1326.8,415.5 1326.8,502.5 1326.8,803.5 1202.1,803.5 73.2,803.5 73.2,616.9 
			73.2,502.5 73.2,422.7 		"/>
		<rect x="960.9" y="659.4" fill="#87C0B1" width="64.1" height="55.6"/>
		<rect x="736" y="659.4" fill="#87C0B1" width="64.1" height="55.6"/>
		<rect x="623.5" y="659.4" fill="#87C0B1" width="64.1" height="55.6"/>
		<rect x="309.4" y="350.6" fill="#7CB0A3" width="64.1" height="55.6"/>
		<rect x="549.2" y="205.3" fill="#87C0B1" width="64.1" height="55.6"/>
		<rect x="309.4" y="444.4" fill="#7CB0A3" width="64.1" height="55.6"/>
		<rect x="429.3" y="444.4" fill="#87C0B1" width="64.1" height="55.6"/>
		<rect x="549.2" y="444.4" fill="#87C0B1" width="64.1" height="55.6"/>
		<rect x="549.2" y="322.8" fill="#87C0B1" width="64.1" height="55.6"/>
		<rect x="206.4" y="538.3" fill="#87C0B1" width="64.1" height="55.6"/>
		<rect x="309.4" y="632.1" fill="#87C0B1" width="64.1" height="55.6"/>
		<rect x="960.9" y="569.2" fill="#87C0B1" width="64.1" height="55.6"/>
		<rect x="1069.8" y="569.2" fill="#87C0B1" width="64.1" height="55.6"/>
		<rect x="848.1" y="569.2" fill="#87C0B1" width="64.1" height="55.6"/>
		<rect x="736" y="569.2" fill="#87C0B1" width="64.1" height="55.6"/>
		<rect x="960.9" y="479" fill="#87C0B1" width="64.1" height="55.6"/>
		<rect x="848.1" y="479" fill="#87C0B1" width="64.1" height="55.6"/>
		<rect x="960.9" y="388.9" fill="#87C0B1" width="64.1" height="55.6"/>
		<path fill="#00B673" d="M570.5,752.7c-0.9,0-1.9,0.1-2.8,0.2c-2.3-15.2-15.4-26.9-31.2-26.9c-8.8,0-16.7,3.6-22.5,9.4
			c-5.4-10.7-15.3-18.7-27.3-21.5c2.2-3.7,3.4-8,3.4-12.5c0-13.8-11.2-24.9-24.9-24.9c-11.4,0-20.9,7.6-23.9,18
			c-9.6-7-21.3-11.1-34-11.1c-17,0-32.3,7.4-42.9,19.1c-1.8-13.2-13.1-23.3-26.7-23.3c-3.8,0-7.3,0.8-10.6,2.2
			c-6-18.2-23.1-31.4-43.4-31.4c-12.7,0-24.1,5.2-32.4,13.5c-1.2-0.3-2.5-0.7-3.8-0.9c0-0.2,0-0.3,0-0.5c0-11.7-8.2-21.5-19.2-23.9
			c6.4-13.2,9.9-28.1,9.9-43.8c0-55.9-45.3-101.1-101.1-101.1c-1.9,0-3.7,0.1-5.5,0.2c-61.9,118.2-16.9,282.1-16.9,282.1h194.7
			c7.5,9.8,19.2,16.1,32.4,16.1c9.5,0,18.2-3.3,25.1-8.7c10.4,10.1,24.6,16.3,40.2,16.3c15.7,0,29.9-6.3,40.3-16.4
			c7.5,7.7,18,12.6,29.6,12.6c14.3,0,26.9-7.3,34.3-18.4c5.8,7.4,14.8,12.2,24.9,12.2c5.4,0,10.5-1.4,14.9-3.8
			c3.8,6.6,10.9,11.1,19.1,11.1c12.1,0,22-9.8,22-22C592.5,762.5,582.6,752.7,570.5,752.7z"/>
		<g>
			<path fill="#00AB6C" d="M102,499.5C102,499.5,102.1,499.5,102,499.5C102,499.5,102,499.5,102,499.5z"/>
			<path fill="#00AB6C" d="M98.1,501C98.1,501,98.1,501.1,98.1,501c0.8-0.3,1.5-0.6,2.1-0.8C99.5,500.5,98.8,500.7,98.1,501z"/>
			<polygon fill="#00B673" points="102.1,499.5 102.1,499.5 102.1,499.5 			"/>
			<path fill="#00B673" d="M100.2,500.2c0.6-0.2,1.2-0.5,1.8-0.7C101.8,499.6,101.2,499.8,100.2,500.2z"/>
		</g>
		<path fill="#00AB6C" d="M595.5,775.5H326.1h-7h-16.6H114.8c0,0-45.1-163.9,16.9-282.1c-10.3,0.6-20.3,2.7-29.6,6.1c0,0,0,0,0,0
			c0,0-0.1,0-0.1,0c-0.6,0.2-1.2,0.5-1.8,0.7c-0.6,0.2-1.3,0.5-2.1,0.9c-5.3,2.2-15.1,6.5-24.9,12.1V597v117.4v89.1h22.3h12.9h23.5
			h170.6h23.6h269.4c7.7,0,14-6.3,14-14C609.5,781.7,603.2,775.5,595.5,775.5z"/>
		<path fill="#00B673" d="M1273.2,549c-18.2-11.8-39.9-18.6-63.2-18.6c-64.5,0-116.9,52.3-116.9,116.9c0,0.8,0,1.6,0.1,2.4
			c-5.4-1.5-11.1-2.4-17-2.4c-34.5,0-62.5,28-62.5,62.5c0,3.5,0.3,7,0.9,10.4c-4,1.1-7.4,3.5-9.8,6.7c-5.5-10.2-16.2-17.1-28.6-17.1
			c-16.5,0-30.1,12.3-32.2,28.2c-2.2-1.2-4.8-1.9-7.4-1.9c-5.7,0-10.8,3.1-13.5,7.7c-5.3-16.1-20.3-27.7-38.2-27.7
			c-20.8,0-38,15.9-40,36.1c-2.4-1-5.1-1.5-7.9-1.5c-11.9,0-21.5,9.6-21.5,21.5c0,0.8,0.1,1.6,0.1,2.4h453.8
			C1269.4,774.7,1305.6,648.9,1273.2,549z"/>
		<path fill="#00AB6C" d="M1326.5,638.6c-2.8-37.6-23.3-70.3-53.3-89.6c32.4,99.9-3.8,225.7-3.8,225.7H815.6h-6.8
			c-8,0-14.4,6.5-14.4,14.4c0,8,6.4,14.4,14.4,14.4h486.7h5.8h25.3V679.2c0,0,0,0,0-0.1c0.1-2.2,0.2-4.5,0.3-6.7
			c0-1,0.1-1.9,0.1-2.8v-21.8C1326.7,644.8,1326.6,641.7,1326.5,638.6z"/>
		<path fill="#58595B" d="M976.4,969l-33.1-25.3H456.7L423.6,969L73.2,1236.9v3.1c0,47.9,38.9,86.8,86.8,86.8h505.2l13.9-213h41.9
			l13.9,213H1240c47.9,0,86.8-38.9,86.8-86.8v-3.1L976.4,969z"/>
		<polygon fill="#498A5E" points="609.5,803.5 73.2,803.5 73.2,846.9 545.8,846.9 		"/>
		<polygon fill="#498A5E" points="73.2,943.7 73.2,1073.4 73.2,1169.3 404,943.7 		"/>
		<polygon fill="#FFFFFF" points="689.2,957.6 681.5,1076.3 718.5,1076.3 710.8,957.6 		"/>
		<polygon fill="#FFFFFF" points="701.7,818.6 698.3,818.6 696.4,846.9 703.6,846.9 		"/>
		<polygon fill="#FFFFFF" points="703.6,848.1 703.6,846.9 696.4,846.9 696.4,848.1 		"/>
		<polygon fill="#FFFFFF" points="679.1,1113.8 665.2,1326.8 734.8,1326.8 720.9,1113.8 		"/>
		<polygon fill="#FFFFFF" points="838.5,846.9 854.2,846.9 790.5,803.5 776.6,803.5 838.5,846.9 		"/>
		<polygon fill="#58595B" points="943.3,943.7 976.4,969 976.4,943.7 976.4,943.7 		"/>
		<polygon fill="#FFFFFF" points="976.4,943.7 976.4,943.7 976.4,943.7 		"/>
		<polygon fill="#FFFFFF" points="838.5,846.9 838.5,846.9 838.5,846.9 		"/>
		<polygon fill="#DBDBDB" points="976.4,969 1326.8,1236.9 1326.8,1189.5 976.4,943.7 		"/>
		<polygon fill="#FFFFFF" points="996,943.7 976.4,943.7 976.4,943.7 1326.8,1189.5 1326.8,1169.3 		"/>
		<polygon fill="#58595B" points="838.5,863.6 838.5,863.6 838.5,863.6 		"/>
		<polygon fill="#58595B" points="423.6,969 456.7,943.7 423.6,943.7 		"/>
		<polygon fill="#FFFFFF" points="404,943.7 73.2,1169.3 73.2,1189.5 423.6,943.7 		"/>
		<polygon fill="#DBDBDB" points="423.6,943.7 423.6,943.7 73.2,1189.5 73.2,1236.9 423.6,969 		"/>
		<polygon fill="#FFFFFF" points="561.5,846.9 623.4,803.5 609.5,803.5 545.8,846.9 		"/>
		<polygon fill="#FFFFFF" points="545.8,846.9 73.2,846.9 73.2,863.6 521.4,863.6 537.8,863.6 561.5,863.6 561.5,846.9 		"/>
		<polygon fill="#438056" points="1326.8,1169.3 1326.8,1073.4 1326.8,943.7 996,943.7 		"/>
		<polygon fill="#438056" points="1326.8,846.9 1326.8,803.5 790.5,803.5 854.2,846.9 		"/>
		<polygon fill="#58595B" points="878.6,863.6 862.2,863.6 838.5,863.6 816.7,846.9 703.6,846.9 703.6,848.1 696.4,848.1 
			696.4,846.9 583.3,846.9 561.5,863.6 537.8,863.6 521.4,863.6 73.2,863.6 73.2,870 73.2,943.7 404,943.7 423.6,943.7 456.7,943.7 
			943.3,943.7 976.4,943.7 996,943.7 1326.8,943.7 1326.8,870 1326.8,863.6 		"/>
		<polygon fill="#FFFFFF" points="854.2,846.9 838.5,846.9 838.5,863.6 862.2,863.6 878.6,863.6 1326.8,863.6 1326.8,846.9 		"/>
		<g>
			<polygon fill="#FFFFFF" points="156.1,891.5 147.5,904.4 72,904.4 80.6,891.5 			"/>
			<polygon fill="#FFFFFF" points="272.4,891.5 263.9,904.4 188.4,904.4 196.9,891.5 			"/>
			<polygon fill="#FFFFFF" points="388.8,891.5 380.2,904.4 304.7,904.4 313.2,891.5 			"/>
			<polygon fill="#FFFFFF" points="505.1,891.5 496.5,904.4 421,904.4 429.6,891.5 			"/>
			<polygon fill="#FFFFFF" points="621.4,891.5 612.9,904.4 537.4,904.4 545.9,891.5 			"/>
			<polygon fill="#FFFFFF" points="737.8,891.5 746.3,904.4 653.7,904.4 662.2,891.5 			"/>
			<polygon fill="#FFFFFF" points="854.1,891.5 862.6,904.4 787.1,904.4 778.6,891.5 			"/>
			<polygon fill="#FFFFFF" points="970.4,891.5 979,904.4 903.5,904.4 894.9,891.5 			"/>
			<polygon fill="#FFFFFF" points="1086.8,891.5 1095.3,904.4 1019.8,904.4 1011.2,891.5 			"/>
			<polygon fill="#FFFFFF" points="1203.1,891.5 1211.6,904.4 1136.1,904.4 1127.6,891.5 			"/>
			<polygon fill="#FFFFFF" points="1319.4,891.5 1328,904.4 1252.5,904.4 1243.9,891.5 			"/>
		</g>
		<polygon fill="#DBDBDB" points="561.5,846.9 561.5,863.6 583.3,846.9 623.4,816.2 623.4,803.5 		"/>
		<g>
			<polygon fill="#58595B" points="779.7,818.6 776.6,816.2 776.6,803.5 759.9,803.5 700.7,803.5 699.3,803.5 640.1,803.5 
				623.4,803.5 623.4,816.2 583.3,846.9 696.4,846.9 698.3,818.6 701.7,818.6 703.6,846.9 816.7,846.9 			"/>
			<polygon fill="#DBDBDB" points="776.6,803.5 776.6,816.2 779.7,818.6 816.7,846.9 838.5,863.6 838.5,846.9 			"/>
		</g>
		<path fill="#3E7550" d="M356.1,960c0,5.5-10.7,10-23.9,10c-13.2,0-23.9-4.5-23.9-10c0-5.5,10.7-10,23.9-10
			C345.4,950,356.1,954.5,356.1,960z"/>
		<g>
			<path fill="#26444E" d="M401.7,550.1c0,9.4-7.7,17.1-17.1,17.1H280.2c-9.4,0-17.1-7.7-17.1-17.1V313.4c0-9.4,7.7-17.1,17.1-17.1
				h104.5c9.4,0,17.1,7.7,17.1,17.1V550.1z"/>
			<g>
				<path fill="#3D6D7D" d="M388.9,554.4h-113V309.1h113V554.4z M284.4,545.8h95.9V317.7h-95.9V545.8z"/>
			</g>
			<path fill="#FF685E" d="M263.1,335.3c-6.8,5.6-11.2,14.1-11.2,23.6c0,9.5,4.3,18,11.2,23.6V335.3z"/>
			<path fill="#213C45" d="M263.1,344.3c0,0-5.9-7.1-19-5.9c0,0-1.6-1.1-0.4-2.6c0,0,7.3-7.9,19.4-4V344.3z"/>
			<path fill="#FFE46B" d="M263.1,410.4c-6.8,5.6-11.2,14.1-11.2,23.6c0,9.5,4.3,18,11.2,23.6V410.4z"/>
			<path fill="#213C45" d="M263.1,419.4c0,0-5.9-7.1-19-5.9c0,0-1.6-1.1-0.4-2.6c0,0,7.3-7.9,19.4-4V419.4z"/>
			<path fill="#00CD88" d="M263.1,483.2c-6.8,5.6-11.2,14.1-11.2,23.6c0,9.5,4.3,18,11.2,23.6V483.2z"/>
			<path fill="#213C45" d="M263.1,492.2c0,0-5.9-7.1-19-5.9c0,0-1.6-1.1-0.4-2.6c0,0,7.3-7.9,19.4-4V492.2z"/>
			<path fill="#FF685E" d="M401.7,335.3c6.8,5.6,11.2,14.1,11.2,23.6c0,9.5-4.3,18-11.2,23.6V335.3z"/>
			<path fill="#213C45" d="M401.7,344.3c0,0,5.9-7.1,19-5.9c0,0,1.6-1.1,0.4-2.6c0,0-7.3-7.9-19.4-4V344.3z"/>
			<path fill="#FFE46B" d="M401.7,410.4c6.8,5.6,11.2,14.1,11.2,23.6c0,9.5-4.3,18-11.2,23.6V410.4z"/>
			<path fill="#213C45" d="M401.7,419.4c0,0,5.9-7.1,19-5.9c0,0,1.6-1.1,0.4-2.6c0,0-7.3-7.9-19.4-4V419.4z"/>
			<path fill="#00CD88" d="M401.7,483.2c6.8,5.6,11.2,14.1,11.2,23.6c0,9.5-4.3,18-11.2,23.6V483.2z"/>
			<path fill="#213C45" d="M401.7,492.2c0,0,5.9-7.1,19-5.9c0,0,1.6-1.1,0.4-2.6c0,0-7.3-7.9-19.4-4V492.2z"/>
			<path fill="#498396" d="M309.8,346.8L309.8,346.8c5.1-7,13.3-11.6,22.6-11.6c9.5,0,18,4.8,23,12.1c1.4,1.2,4.9,3.5,6.2-1.6
				l0.1-0.2c-4.2-12.1-15.7-20.8-29.3-20.8c-13.6,0-25.2,8.8-29.4,21C304.7,352,309.8,346.8,309.8,346.8z"/>
			<path fill="#3D6D7D" d="M355.4,347.3c-5-7.3-13.4-12.1-23-12.1c-9.3,0-17.5,4.6-22.6,11.6c-3.3,4.6-5.3,10.2-5.3,16.3
				c0,3.2,0.6,6.3,1.6,9.1c3.8,10.9,14.1,18.7,26.3,18.7c12.2,0,22.5-7.8,26.3-18.8c1-2.9,1.6-5.9,1.6-9.1
				C360.3,357.2,358.5,351.8,355.4,347.3z M332.4,384.6c-11.9,0-21.5-9.6-21.5-21.5c0-6.5,2.9-12.3,7.5-16.3
				c3.8-3.3,8.7-5.3,14.1-5.3c5.4,0,10.3,2,14.1,5.3c4.6,3.9,7.5,9.8,7.5,16.3C354,375,344.3,384.6,332.4,384.6z"/>
			<path fill="#FF685E" d="M346.5,346.8c-3.8-3.3-8.7-5.3-14.1-5.3c-5.4,0-10.3,2-14.1,5.3c-4.6,3.9-7.5,9.8-7.5,16.3
				c0,11.9,9.6,21.5,21.5,21.5c11.9,0,21.5-9.6,21.5-21.5C354,356.6,351.1,350.7,346.5,346.8z"/>
			<path fill="#498396" d="M309.8,420.7L309.8,420.7c5.1-7,13.3-11.6,22.6-11.6c9.5,0,18,4.8,23,12.1c1.4,1.2,4.9,3.5,6.2-1.6
				l0.1-0.2c-4.2-12.1-15.7-20.8-29.3-20.8c-13.6,0-25.2,8.8-29.4,21C304.7,425.9,309.8,420.7,309.8,420.7z"/>
			<path fill="#3D6D7D" d="M355.4,421.2c-5-7.3-13.4-12.1-23-12.1c-9.3,0-17.5,4.6-22.6,11.6c-3.3,4.6-5.3,10.2-5.3,16.3
				c0,3.2,0.6,6.3,1.6,9.1c3.8,10.9,14.1,18.7,26.3,18.7c12.2,0,22.5-7.8,26.3-18.8c1-2.9,1.6-5.9,1.6-9.1
				C360.3,431.1,358.5,425.7,355.4,421.2z M332.4,458.5c-11.9,0-21.5-9.6-21.5-21.5c0-6.5,2.9-12.3,7.5-16.3
				c3.8-3.3,8.7-5.3,14.1-5.3c5.4,0,10.3,2,14.1,5.3c4.6,4,7.5,9.8,7.5,16.3C354,448.9,344.3,458.5,332.4,458.5z"/>
			<path fill="#498396" d="M309.8,494.6L309.8,494.6c5.1-7,13.3-11.6,22.6-11.6c9.5,0,18,4.8,23,12.1c1.4,1.1,4.9,3.5,6.2-1.6
				l0.1-0.2c-4.2-12.1-15.7-20.8-29.3-20.8c-13.6,0-25.2,8.8-29.4,21C304.7,499.8,309.8,494.6,309.8,494.6z"/>
			<path fill="#3D6D7D" d="M355.4,495.1c-5-7.3-13.4-12.1-23-12.1c-9.3,0-17.5,4.6-22.6,11.6c-3.3,4.6-5.3,10.2-5.3,16.3
				c0,3.2,0.6,6.3,1.6,9.1c3.8,10.9,14.1,18.8,26.3,18.8c12.2,0,22.5-7.8,26.3-18.8c1-2.9,1.6-5.9,1.6-9.1
				C360.3,505,358.5,499.6,355.4,495.1z M332.4,532.4c-11.9,0-21.5-9.6-21.5-21.5c0-6.5,2.9-12.3,7.5-16.3c3.8-3.3,8.7-5.3,14.1-5.3
				c5.4,0,10.3,2,14.1,5.3c4.6,3.9,7.5,9.8,7.5,16.3C354,522.8,344.3,532.4,332.4,532.4z"/>
			<path fill="#00CD88" d="M346.5,494.6c-3.8-3.3-8.7-5.3-14.1-5.3c-5.4,0-10.3,2-14.1,5.3c-4.6,3.9-7.5,9.8-7.5,16.3
				c0,11.9,9.6,21.5,21.5,21.5c11.9,0,21.5-9.6,21.5-21.5C354,504.3,351.1,498.5,346.5,494.6z"/>
			<g>
				<polygon fill="#8D8F91" points="346.2,567.2 337.6,567.2 337.6,962.9 346.2,957.1 				"/>
				<rect x="318.5" y="567.2" fill="#A7A9AC" width="19.1" height="395.7"/>
			</g>
			<rect x="318.5" y="567.2" fill="#8D8F91" width="19.1" height="7.2"/>
		</g>
		<path fill="#3E7550" d="M551.1,834.5c0,2.9-5.6,5.2-12.4,5.2c-6.9,0-12.4-2.3-12.4-5.2c0-2.9,5.6-5.2,12.4-5.2
			C545.5,829.3,551.1,831.6,551.1,834.5z"/>
		<g>
			<path fill="#26444E" d="M574.8,621.3c0,4.9-4,8.9-8.9,8.9h-54.3c-4.9,0-8.9-4-8.9-8.9V498.2c0-4.9,4-8.9,8.9-8.9h54.3
				c4.9,0,8.9,4,8.9,8.9V621.3z"/>
			<g>
				<path fill="#3D6D7D" d="M568.1,623.5h-58.8V496h58.8V623.5z M513.8,619.1h49.9V500.4h-49.9V619.1z"/>
			</g>
			<path fill="#FF685E" d="M502.7,509.6c-3.5,2.9-5.8,7.3-5.8,12.3c0,4.9,2.3,9.4,5.8,12.3V509.6z"/>
			<path fill="#213C45" d="M502.7,514.3c0,0-3.1-3.7-9.9-3.1c0,0-0.8-0.6-0.2-1.3c0,0,3.8-4.1,10.1-2.1V514.3z"/>
			<path fill="#FFE46B" d="M502.7,548.7c-3.5,2.9-5.8,7.3-5.8,12.3s2.3,9.4,5.8,12.3V548.7z"/>
			<path fill="#213C45" d="M502.7,553.3c0,0-3.1-3.7-9.9-3c0,0-0.8-0.6-0.2-1.3c0,0,3.8-4.1,10.1-2.1V553.3z"/>
			<path fill="#00CD88" d="M502.7,586.5c-3.5,2.9-5.8,7.3-5.8,12.3c0,4.9,2.3,9.4,5.8,12.3V586.5z"/>
			<path fill="#213C45" d="M502.7,591.2c0,0-3.1-3.7-9.9-3.1c0,0-0.8-0.6-0.2-1.3c0,0,3.8-4.1,10.1-2.1V591.2z"/>
			<path fill="#FF685E" d="M574.8,509.6c3.5,2.9,5.8,7.3,5.8,12.3c0,4.9-2.3,9.4-5.8,12.3V509.6z"/>
			<path fill="#213C45" d="M574.8,514.3c0,0,3.1-3.7,9.9-3.1c0,0,0.8-0.6,0.2-1.3c0,0-3.8-4.1-10.1-2.1V514.3z"/>
			<path fill="#FFE46B" d="M574.8,548.7c3.5,2.9,5.8,7.3,5.8,12.3s-2.3,9.4-5.8,12.3V548.7z"/>
			<path fill="#213C45" d="M574.8,553.3c0,0,3.1-3.7,9.9-3c0,0,0.8-0.6,0.2-1.3c0,0-3.8-4.1-10.1-2.1V553.3z"/>
			<path fill="#00CD88" d="M574.8,586.5c3.5,2.9,5.8,7.3,5.8,12.3c0,4.9-2.3,9.4-5.8,12.3V586.5z"/>
			<path fill="#213C45" d="M574.8,591.2c0,0,3.1-3.7,9.9-3.1c0,0,0.8-0.6,0.2-1.3c0,0-3.8-4.1-10.1-2.1V591.2z"/>
			<path fill="#498396" d="M527,515.6L527,515.6c2.6-3.6,6.9-6,11.8-6c5,0,9.3,2.5,12,6.3c0.7,0.6,2.6,1.8,3.2-0.8l0.1-0.1
				c-2.2-6.3-8.2-10.8-15.2-10.8c-7.1,0-13.1,4.6-15.3,10.9C524.3,518.3,527,515.6,527,515.6z"/>
			<path fill="#3D6D7D" d="M550.7,515.9c-2.6-3.8-7-6.3-12-6.3c-4.8,0-9.1,2.4-11.7,6c-1.7,2.4-2.7,5.3-2.7,8.5
				c0,1.7,0.3,3.3,0.8,4.7c2,5.7,7.3,9.8,13.7,9.8s11.7-4.1,13.7-9.8c0.5-1.5,0.8-3.1,0.8-4.7C553.3,521,552.3,518.2,550.7,515.9z
				 M538.8,535.2c-6.2,0-11.2-5-11.2-11.2c0-3.4,1.5-6.4,3.9-8.5c2-1.7,4.5-2.7,7.3-2.7c2.8,0,5.4,1,7.3,2.7
				c2.4,2.1,3.9,5.1,3.9,8.5C550,530.2,544.9,535.2,538.8,535.2z"/>
			<path fill="#FF685E" d="M546.1,515.6c-2-1.7-4.5-2.7-7.3-2.7c-2.8,0-5.4,1-7.3,2.7c-2.4,2.1-3.9,5.1-3.9,8.5
				c0,6.2,5,11.2,11.2,11.2c6.2,0,11.2-5,11.2-11.2C550,520.7,548.4,517.6,546.1,515.6z"/>
			<path fill="#498396" d="M527,554L527,554c2.6-3.6,6.9-6,11.8-6c5,0,9.3,2.5,12,6.3c0.7,0.6,2.6,1.8,3.2-0.8l0.1-0.1
				c-2.2-6.3-8.2-10.8-15.2-10.8c-7.1,0-13.1,4.6-15.3,10.9C524.3,556.7,527,554,527,554z"/>
			<path fill="#3D6D7D" d="M550.7,554.3c-2.6-3.8-7-6.3-12-6.3c-4.8,0-9.1,2.4-11.7,6c-1.7,2.4-2.7,5.3-2.7,8.5
				c0,1.7,0.3,3.3,0.8,4.7c2,5.7,7.3,9.8,13.7,9.8s11.7-4.1,13.7-9.8c0.5-1.5,0.8-3.1,0.8-4.7C553.3,559.4,552.3,556.6,550.7,554.3z
				 M538.8,573.7c-6.2,0-11.2-5-11.2-11.2c0-3.4,1.5-6.4,3.9-8.5c2-1.7,4.5-2.7,7.3-2.7c2.8,0,5.4,1,7.3,2.7
				c2.4,2.1,3.9,5.1,3.9,8.5C550,568.7,544.9,573.7,538.8,573.7z"/>
			<path fill="#498396" d="M527,592.4L527,592.4c2.6-3.6,6.9-6,11.8-6c5,0,9.3,2.5,12,6.3c0.7,0.6,2.6,1.8,3.2-0.8l0.1-0.1
				c-2.2-6.3-8.2-10.8-15.2-10.8c-7.1,0-13.1,4.6-15.3,10.9C524.3,595.2,527,592.4,527,592.4z"/>
			<path fill="#3D6D7D" d="M550.7,592.7c-2.6-3.8-7-6.3-12-6.3c-4.8,0-9.1,2.4-11.7,6c-1.7,2.4-2.7,5.3-2.7,8.5
				c0,1.7,0.3,3.3,0.8,4.7c2,5.7,7.3,9.8,13.7,9.8s11.7-4.1,13.7-9.8c0.5-1.5,0.8-3.1,0.8-4.7C553.3,597.9,552.3,595,550.7,592.7z
				 M538.8,612.1c-6.2,0-11.2-5-11.2-11.2c0-3.4,1.5-6.4,3.9-8.5c2-1.7,4.5-2.7,7.3-2.7c2.8,0,5.4,1,7.3,2.7
				c2.4,2.1,3.9,5.1,3.9,8.5C550,607.1,544.9,612.1,538.8,612.1z"/>
			<path fill="#00CD88" d="M546.1,592.4c-2-1.7-4.5-2.7-7.3-2.7c-2.8,0-5.4,1-7.3,2.7c-2.4,2.1-3.9,5.1-3.9,8.5
				c0,6.2,5,11.2,11.2,11.2c6.2,0,11.2-5,11.2-11.2C550,597.5,548.4,594.5,546.1,592.4z"/>
			<g>
				<polygon fill="#8D8F91" points="545.9,630.2 541.5,630.2 541.5,836 545.9,833 				"/>
				<rect x="531.5" y="630.2" fill="#A7A9AC" width="9.9" height="205.8"/>
			</g>
			<rect x="531.5" y="630.2" fill="#8D8F91" width="9.9" height="3.7"/>
		</g>
		<path fill="#3E7550" d="M873.6,834.5c0,2.9-5.6,5.2-12.4,5.2c-6.9,0-12.4-2.3-12.4-5.2c0-2.9,5.6-5.2,12.4-5.2
			C868.1,829.3,873.6,831.6,873.6,834.5z"/>
		<g>
			<path fill="#26444E" d="M897.3,621.3c0,4.9-4,8.9-8.9,8.9h-54.3c-4.9,0-8.9-4-8.9-8.9V498.2c0-4.9,4-8.9,8.9-8.9h54.3
				c4.9,0,8.9,4,8.9,8.9V621.3z"/>
			<g>
				<path fill="#3D6D7D" d="M890.7,623.5h-58.8V496h58.8V623.5z M836.3,619.1h49.9V500.4h-49.9V619.1z"/>
			</g>
			<path fill="#FF685E" d="M825.2,509.6c-3.5,2.9-5.8,7.3-5.8,12.3c0,4.9,2.3,9.4,5.8,12.3V509.6z"/>
			<path fill="#213C45" d="M825.2,514.3c0,0-3-3.7-9.9-3.1c0,0-0.8-0.6-0.2-1.3c0,0,3.8-4.1,10.1-2.1V514.3z"/>
			<path fill="#FFE46B" d="M825.2,548.7c-3.5,2.9-5.8,7.3-5.8,12.3s2.3,9.4,5.8,12.3V548.7z"/>
			<path fill="#213C45" d="M825.2,553.3c0,0-3-3.7-9.9-3c0,0-0.8-0.6-0.2-1.3c0,0,3.8-4.1,10.1-2.1V553.3z"/>
			<path fill="#00CD88" d="M825.2,586.5c-3.5,2.9-5.8,7.3-5.8,12.3c0,4.9,2.3,9.4,5.8,12.3V586.5z"/>
			<path fill="#213C45" d="M825.2,591.2c0,0-3-3.7-9.9-3.1c0,0-0.8-0.6-0.2-1.3c0,0,3.8-4.1,10.1-2.1V591.2z"/>
			<path fill="#FF685E" d="M897.3,509.6c3.5,2.9,5.8,7.3,5.8,12.3c0,4.9-2.3,9.4-5.8,12.3V509.6z"/>
			<path fill="#213C45" d="M897.3,514.3c0,0,3.1-3.7,9.9-3.1c0,0,0.8-0.6,0.2-1.3c0,0-3.8-4.1-10.1-2.1V514.3z"/>
			<path fill="#FFE46B" d="M897.3,548.7c3.5,2.9,5.8,7.3,5.8,12.3s-2.3,9.4-5.8,12.3V548.7z"/>
			<path fill="#213C45" d="M897.3,553.3c0,0,3.1-3.7,9.9-3c0,0,0.8-0.6,0.2-1.3c0,0-3.8-4.1-10.1-2.1V553.3z"/>
			<path fill="#00CD88" d="M897.3,586.5c3.5,2.9,5.8,7.3,5.8,12.3c0,4.9-2.3,9.4-5.8,12.3V586.5z"/>
			<path fill="#213C45" d="M897.3,591.2c0,0,3.1-3.7,9.9-3.1c0,0,0.8-0.6,0.2-1.3c0,0-3.8-4.1-10.1-2.1V591.2z"/>
			<path fill="#498396" d="M849.5,515.6L849.5,515.6c2.6-3.6,6.9-6,11.8-6c5,0,9.3,2.5,12,6.3c0.7,0.6,2.6,1.8,3.2-0.8l0.1-0.1
				c-2.2-6.3-8.2-10.8-15.2-10.8c-7.1,0-13.1,4.6-15.3,10.9C846.9,518.3,849.5,515.6,849.5,515.6z"/>
			<path fill="#3D6D7D" d="M873.2,515.9c-2.6-3.8-7-6.3-12-6.3c-4.8,0-9.1,2.4-11.7,6c-1.7,2.4-2.8,5.3-2.8,8.5
				c0,1.7,0.3,3.3,0.8,4.7c2,5.7,7.3,9.8,13.7,9.8c6.3,0,11.7-4.1,13.7-9.8c0.5-1.5,0.8-3.1,0.8-4.7
				C875.8,521,874.8,518.2,873.2,515.9z M861.3,535.2c-6.2,0-11.2-5-11.2-11.2c0-3.4,1.5-6.4,3.9-8.5c2-1.7,4.5-2.7,7.3-2.7
				c2.8,0,5.3,1,7.3,2.7c2.4,2.1,3.9,5.1,3.9,8.5C872.5,530.2,867.5,535.2,861.3,535.2z"/>
			<path fill="#FF685E" d="M868.6,515.6c-2-1.7-4.5-2.7-7.3-2.7c-2.8,0-5.4,1-7.3,2.7c-2.4,2.1-3.9,5.1-3.9,8.5
				c0,6.2,5,11.2,11.2,11.2c6.2,0,11.2-5,11.2-11.2C872.5,520.7,871,517.6,868.6,515.6z"/>
			<path fill="#498396" d="M849.5,554L849.5,554c2.6-3.6,6.9-6,11.8-6c5,0,9.3,2.5,12,6.3c0.7,0.6,2.6,1.8,3.2-0.8l0.1-0.1
				c-2.2-6.3-8.2-10.8-15.2-10.8c-7.1,0-13.1,4.6-15.3,10.9C846.9,556.7,849.5,554,849.5,554z"/>
			<path fill="#3D6D7D" d="M873.2,554.3c-2.6-3.8-7-6.3-12-6.3c-4.8,0-9.1,2.4-11.7,6c-1.7,2.4-2.8,5.3-2.8,8.5
				c0,1.7,0.3,3.3,0.8,4.7c2,5.7,7.3,9.8,13.7,9.8c6.3,0,11.7-4.1,13.7-9.8c0.5-1.5,0.8-3.1,0.8-4.7
				C875.8,559.4,874.8,556.6,873.2,554.3z M861.3,573.7c-6.2,0-11.2-5-11.2-11.2c0-3.4,1.5-6.4,3.9-8.5c2-1.7,4.5-2.7,7.3-2.7
				c2.8,0,5.3,1,7.3,2.7c2.4,2.1,3.9,5.1,3.9,8.5C872.5,568.7,867.5,573.7,861.3,573.7z"/>
			<path fill="#498396" d="M849.5,592.4L849.5,592.4c2.6-3.6,6.9-6,11.8-6c5,0,9.3,2.5,12,6.3c0.7,0.6,2.6,1.8,3.2-0.8l0.1-0.1
				c-2.2-6.3-8.2-10.8-15.2-10.8c-7.1,0-13.1,4.6-15.3,10.9C846.9,595.2,849.5,592.4,849.5,592.4z"/>
			<path fill="#3D6D7D" d="M873.2,592.7c-2.6-3.8-7-6.3-12-6.3c-4.8,0-9.1,2.4-11.7,6c-1.7,2.4-2.8,5.3-2.8,8.5
				c0,1.7,0.3,3.3,0.8,4.7c2,5.7,7.3,9.8,13.7,9.8c6.3,0,11.7-4.1,13.7-9.8c0.5-1.5,0.8-3.1,0.8-4.7
				C875.8,597.9,874.8,595,873.2,592.7z M861.3,612.1c-6.2,0-11.2-5-11.2-11.2c0-3.4,1.5-6.4,3.9-8.5c2-1.7,4.5-2.7,7.3-2.7
				c2.8,0,5.3,1,7.3,2.7c2.4,2.1,3.9,5.1,3.9,8.5C872.5,607.1,867.5,612.1,861.3,612.1z"/>
			<path fill="#00CD88" d="M868.6,592.4c-2-1.7-4.5-2.7-7.3-2.7c-2.8,0-5.4,1-7.3,2.7c-2.4,2.1-3.9,5.1-3.9,8.5
				c0,6.2,5,11.2,11.2,11.2c6.2,0,11.2-5,11.2-11.2C872.5,597.5,871,594.5,868.6,592.4z"/>
			<g>
				<polygon fill="#8D8F91" points="868.5,630.2 864,630.2 864,836 868.5,833 				"/>
				<rect x="854.1" y="630.2" fill="#A7A9AC" width="9.9" height="205.8"/>
			</g>
			<rect x="854.1" y="630.2" fill="#8D8F91" width="9.9" height="3.7"/>
		</g>
		<path fill="#3E7550" d="M1091.4,960c0,5.5-10.7,10-23.9,10c-13.2,0-23.9-4.5-23.9-10c0-5.5,10.7-10,23.9-10
			C1080.7,950,1091.4,954.5,1091.4,960z"/>
		<g>
			<path fill="#26444E" d="M1136.9,550.1c0,9.4-7.7,17.1-17.1,17.1h-104.5c-9.4,0-17.1-7.7-17.1-17.1V313.4
				c0-9.4,7.7-17.1,17.1-17.1h104.5c9.4,0,17.1,7.7,17.1,17.1V550.1z"/>
			<g>
				<path fill="#3D6D7D" d="M1124.1,554.4h-113V309.1h113V554.4z M1019.6,545.8h95.9V317.7h-95.9V545.8z"/>
			</g>
			<path fill="#FF685E" d="M998.3,335.3c-6.8,5.6-11.2,14.1-11.2,23.6c0,9.5,4.3,18,11.2,23.6V335.3z"/>
			<path fill="#213C45" d="M998.3,344.3c0,0-5.9-7.1-19-5.9c0,0-1.6-1.1-0.4-2.6c0,0,7.3-7.9,19.4-4V344.3z"/>
			<path fill="#FFE46B" d="M998.3,410.4c-6.8,5.6-11.2,14.1-11.2,23.6c0,9.5,4.3,18,11.2,23.6V410.4z"/>
			<path fill="#213C45" d="M998.3,419.4c0,0-5.9-7.1-19-5.9c0,0-1.6-1.1-0.4-2.6c0,0,7.3-7.9,19.4-4V419.4z"/>
			<path fill="#00CD88" d="M998.3,483.2c-6.8,5.6-11.2,14.1-11.2,23.6c0,9.5,4.3,18,11.2,23.6V483.2z"/>
			<path fill="#213C45" d="M998.3,492.2c0,0-5.9-7.1-19-5.9c0,0-1.6-1.1-0.4-2.6c0,0,7.3-7.9,19.4-4V492.2z"/>
			<path fill="#FF685E" d="M1136.9,335.3c6.8,5.6,11.2,14.1,11.2,23.6c0,9.5-4.3,18-11.2,23.6V335.3z"/>
			<path fill="#213C45" d="M1136.9,344.3c0,0,5.9-7.1,19-5.9c0,0,1.6-1.1,0.4-2.6c0,0-7.3-7.9-19.4-4V344.3z"/>
			<path fill="#FFE46B" d="M1136.9,410.4c6.8,5.6,11.2,14.1,11.2,23.6c0,9.5-4.3,18-11.2,23.6V410.4z"/>
			<path fill="#213C45" d="M1136.9,419.4c0,0,5.9-7.1,19-5.9c0,0,1.6-1.1,0.4-2.6c0,0-7.3-7.9-19.4-4V419.4z"/>
			<path fill="#00CD88" d="M1136.9,483.2c6.8,5.6,11.2,14.1,11.2,23.6c0,9.5-4.3,18-11.2,23.6V483.2z"/>
			<path fill="#213C45" d="M1136.9,492.2c0,0,5.9-7.1,19-5.9c0,0,1.6-1.1,0.4-2.6c0,0-7.3-7.9-19.4-4V492.2z"/>
			<path fill="#498396" d="M1045,346.8L1045,346.8c5.1-7,13.3-11.6,22.6-11.6c9.5,0,18,4.8,23,12.1c1.4,1.2,4.9,3.5,6.2-1.6l0.1-0.2
				c-4.2-12.1-15.7-20.8-29.3-20.8c-13.6,0-25.2,8.8-29.4,21C1039.9,352,1045,346.8,1045,346.8z"/>
			<path fill="#3D6D7D" d="M1090.6,347.3c-5-7.3-13.4-12.1-23-12.1c-9.3,0-17.5,4.6-22.6,11.6c-3.3,4.6-5.3,10.2-5.3,16.3
				c0,3.2,0.6,6.3,1.6,9.1c3.8,10.9,14.1,18.7,26.3,18.7s22.5-7.8,26.3-18.8c1-2.9,1.6-5.9,1.6-9.1
				C1095.5,357.2,1093.7,351.8,1090.6,347.3z M1067.7,384.6c-11.9,0-21.5-9.6-21.5-21.5c0-6.5,2.9-12.3,7.5-16.3
				c3.8-3.3,8.7-5.3,14.1-5.3c5.4,0,10.3,2,14.1,5.3c4.6,3.9,7.5,9.8,7.5,16.3C1089.2,375,1079.6,384.6,1067.7,384.6z"/>
			<path fill="#FF685E" d="M1081.7,346.8c-3.8-3.3-8.7-5.3-14.1-5.3c-5.4,0-10.3,2-14.1,5.3c-4.6,3.9-7.5,9.8-7.5,16.3
				c0,11.9,9.6,21.5,21.5,21.5c11.9,0,21.5-9.6,21.5-21.5C1089.2,356.6,1086.3,350.7,1081.7,346.8z"/>
			<path fill="#498396" d="M1045,420.7L1045,420.7c5.1-7,13.3-11.6,22.6-11.6c9.5,0,18,4.8,23,12.1c1.4,1.2,4.9,3.5,6.2-1.6l0.1-0.2
				c-4.2-12.1-15.7-20.8-29.3-20.8c-13.6,0-25.2,8.8-29.4,21C1039.9,425.9,1045,420.7,1045,420.7z"/>
			<path fill="#3D6D7D" d="M1090.6,421.2c-5-7.3-13.4-12.1-23-12.1c-9.3,0-17.5,4.6-22.6,11.6c-3.3,4.6-5.3,10.2-5.3,16.3
				c0,3.2,0.6,6.3,1.6,9.1c3.8,10.9,14.1,18.7,26.3,18.7s22.5-7.8,26.3-18.8c1-2.9,1.6-5.9,1.6-9.1
				C1095.5,431.1,1093.7,425.7,1090.6,421.2z M1067.7,458.5c-11.9,0-21.5-9.6-21.5-21.5c0-6.5,2.9-12.3,7.5-16.3
				c3.8-3.3,8.7-5.3,14.1-5.3c5.4,0,10.3,2,14.1,5.3c4.6,4,7.5,9.8,7.5,16.3C1089.2,448.9,1079.6,458.5,1067.7,458.5z"/>
			<path fill="#498396" d="M1045,494.6L1045,494.6c5.1-7,13.3-11.6,22.6-11.6c9.5,0,18,4.8,23,12.1c1.4,1.1,4.9,3.5,6.2-1.6l0.1-0.2
				c-4.2-12.1-15.7-20.8-29.3-20.8c-13.6,0-25.2,8.8-29.4,21C1039.9,499.8,1045,494.6,1045,494.6z"/>
			<path fill="#3D6D7D" d="M1090.6,495.1c-5-7.3-13.4-12.1-23-12.1c-9.3,0-17.5,4.6-22.6,11.6c-3.3,4.6-5.3,10.2-5.3,16.3
				c0,3.2,0.6,6.3,1.6,9.1c3.8,10.9,14.1,18.8,26.3,18.8s22.5-7.8,26.3-18.8c1-2.9,1.6-5.9,1.6-9.1
				C1095.5,505,1093.7,499.6,1090.6,495.1z M1067.7,532.4c-11.9,0-21.5-9.6-21.5-21.5c0-6.5,2.9-12.3,7.5-16.3
				c3.8-3.3,8.7-5.3,14.1-5.3c5.4,0,10.3,2,14.1,5.3c4.6,3.9,7.5,9.8,7.5,16.3C1089.2,522.8,1079.6,532.4,1067.7,532.4z"/>
			<path fill="#00CD88" d="M1081.7,494.6c-3.8-3.3-8.7-5.3-14.1-5.3c-5.4,0-10.3,2-14.1,5.3c-4.6,3.9-7.5,9.8-7.5,16.3
				c0,11.9,9.6,21.5,21.5,21.5c11.9,0,21.5-9.6,21.5-21.5C1089.2,504.3,1086.3,498.5,1081.7,494.6z"/>
			<g>
				<polygon fill="#8D8F91" points="1081.4,567.2 1072.9,567.2 1072.9,962.9 1081.4,957.1 				"/>
				<rect x="1053.8" y="567.2" fill="#A7A9AC" width="19.1" height="395.7"/>
			</g>
			<rect x="1053.8" y="567.2" fill="#8D8F91" width="19.1" height="7.2"/>
		</g>
		<g>
			<path fill="#E09A49" d="M708.8,796.1c0,1-0.8,1.7-1.7,1.7h-7.3c-1,0-1.7-0.8-1.7-1.7v-7.2c0-0.9,0.8-1.7,1.7-1.7h7.3
				c0.9,0,1.7,0.8,1.7,1.7V796.1z"/>
			<path fill="#E09A49" d="M620.7,796.1c0,1-0.8,1.7-1.7,1.7h-7.3c-0.9,0-1.7-0.8-1.7-1.7v-7.2c0-0.9,0.8-1.7,1.7-1.7h7.3
				c0.9,0,1.7,0.8,1.7,1.7V796.1z"/>
			<path fill="#FFB154" d="M694.3,773.2c-3.9-8.3-10.7-8.1-10.7-8.1H663h-27.8c0,0-6.7-0.1-10.7,8.1l-9,23.7H663h40.3L694.3,773.2z"
				/>
			<path fill="#FFB154" d="M707.3,803.8l-4.1-6.9H663h-47.5l-4.1,6.9c0,0-3,3.3-2.9,9.1v16.3H663h47.3v-16.3
				C710.3,807.1,707.3,803.8,707.3,803.8z"/>
			<path fill="#6D6E71" d="M716.4,834c0,2.7-2.2,4.9-4.9,4.9H607.7c-2.7,0-4.9-2.2-4.9-4.9l0,0c0-2.7,2.2-4.9,4.9-4.9h103.9
				C714.2,829.2,716.4,831.3,716.4,834L716.4,834z"/>
			<rect x="614" y="838.9" fill="#515151" width="19.1" height="13.8"/>
			<rect x="685.7" y="838.9" fill="#515151" width="19.1" height="13.8"/>
			<polygon fill="#94D3FE" points="645.9,769.6 623,792.5 633.6,792.5 656.5,769.6 			"/>
			<polygon fill="#54BBFE" points="661.4,769.6 656.5,769.6 633.6,792.5 651,792.5 673.9,769.6 			"/>
			<path fill="#54BBFE" d="M635.2,769.6c0,0-5.7,0.2-7.6,7.3l-5.1,15.6h0.5l22.9-22.9H635.2z"/>
			<path fill="#94D3FE" d="M683.6,769.6h-9.7L651,792.5h10.4h0.2l22.8-22.8C683.9,769.6,683.6,769.6,683.6,769.6z"/>
			<path fill="#54BBFE" d="M691.2,776.9c-1.4-5.5-5.2-6.8-6.8-7.2l-22.8,22.8h34.6L691.2,776.9z"/>
			<path fill="#FFEFBE" d="M633.6,812c0,3.4-2.8,6.2-6.2,6.2h-5.7c-3.4,0-6.2-2.8-6.2-6.2l0,0c0-3.4,2.8-6.2,6.2-6.2h5.7
				C630.8,805.8,633.6,808.6,633.6,812L633.6,812z"/>
			<path fill="#FFEFBE" d="M703.2,812c0,3.4-2.8,6.2-6.2,6.2h-5.7c-3.4,0-6.2-2.8-6.2-6.2l0,0c0-3.4,2.8-6.2,6.2-6.2h5.7
				C700.5,805.8,703.2,808.6,703.2,812L703.2,812z"/>
			<path fill="#CC8E41" d="M674.4,824.7c0-1.5-1.3-2.8-2.8-2.8h-24.4c-1.6,0-2.8,1.3-2.8,2.8l0,0c0,1.6,1.3,2.8,2.8,2.8h24.4
				C673.1,827.5,674.4,826.3,674.4,824.7L674.4,824.7z"/>
			<path fill="#CC8E41" d="M674.4,815.8c0-1.6-1.3-2.8-2.8-2.8h-24.4c-1.6,0-2.8,1.3-2.8,2.8l0,0c0,1.6,1.3,2.8,2.8,2.8h24.4
				C673.1,818.7,674.4,817.4,674.4,815.8L674.4,815.8z"/>
		</g>
	</g>
</g>
</svg>
